{
	"asset":{
		"generator":"Khronos glTF Blender I/O v4.5.48",
		"version":"2.0"
	},
	"extensionsUsed":[
		"KHR_materials_clearcoat",
		"KHR_materials_transmission",
		"KHR_materials_specular",
		"KHR_materials_ior",
		"KHR_texture_transform"
	],
	"extensionsRequired":[
		"KHR_texture_transform"
	],
	"scene":0,
	"scenes":[
		{
			"name":"Scene",
			"nodes":[
				0,
				9,
				10,
				12,
				13,
				14,
				34
			]
		}
	],
	"nodes":[
		{
			"mesh":0,
			"name":"walls",
			"translation":[
				0.6754551529884338,
				0,
				0
			]
		},
		{
			"mesh":1,
			"name":"Circle",
			"scale":[
				0.08574013411998749,
				0.10210724174976349,
				0.08574013411998749
			],
			"translation":[
				2.9563823773059994e-05,
				0.3606480062007904,
				0.06905460357666016
			]
		},
		{
			"mesh":2,
			"name":"Plane.002",
			"translation":[
				1.3463571071624756,
				0.42698749899864197,
				0.11903131008148193
			]
		},
		{
			"mesh":3,
			"name":"Plane.003",
			"translation":[
				-1.3234174251556396,
				0.42698749899864197,
				0.11903107166290283
			]
		},
		{
			"mesh":4,
			"name":"Plane.004",
			"rotation":[
				0.6736757755279541,
				0,
				0,
				0.7390270233154297
			],
			"translation":[
				2.0362918376922607,
				1.3726997375488281,
				-0.6745174527168274
			]
		},
		{
			"mesh":5,
			"name":"Plane.005",
			"rotation":[
				0.6736757755279541,
				0,
				0,
				0.7390270233154297
			],
			"translation":[
				0.02906310185790062,
				1.3726997375488281,
				-0.6745173931121826
			]
		},
		{
			"mesh":6,
			"name":"Plane.006",
			"rotation":[
				0.6736757755279541,
				0,
				0,
				0.7390270233154297
			],
			"translation":[
				-1.999443769454956,
				1.3726997375488281,
				-0.6745173335075378
			]
		},
		{
			"mesh":7,
			"name":"Plane.007",
			"rotation":[
				0,
				0.7071068286895752,
				0,
				0.7071067094802856
			],
			"translation":[
				2.6037063598632812,
				0.8620266914367676,
				0.43601441383361816
			]
		},
		{
			"mesh":8,
			"name":"Plane.008",
			"rotation":[
				0,
				0.7071068286895752,
				0,
				0.7071067094802856
			],
			"translation":[
				-2.6094565391540527,
				0.8620266914367676,
				0.43601441383361816
			]
		},
		{
			"children":[
				1,
				2,
				3,
				4,
				5,
				6,
				7,
				8
			],
			"mesh":9,
			"name":"sofa",
			"rotation":[
				0,
				-1,
				0,
				4.371138828673793e-08
			],
			"translation":[
				0.0014500617980957031,
				0.24030062556266785,
				2.4011645317077637
			]
		},
		{
			"mesh":10,
			"name":"tv",
			"rotation":[
				0.7071068286895752,
				0,
				0,
				0.7071068286895752
			],
			"scale":[
				2.0458621978759766,
				0.12786638736724854,
				1.1507976055145264
			],
			"translation":[
				0.008759617805480957,
				3.037616729736328,
				-3.9439938068389893
			]
		},
		{
			"mesh":11,
			"name":"Plane.011",
			"scale":[
				0.03365672007203102,
				0.09999999403953552,
				0.19497531652450562
			],
			"translation":[
				0,
				0.03538518399000168,
				0
			]
		},
		{
			"children":[
				11
			],
			"mesh":12,
			"name":"table",
			"scale":[
				2.971174478530884,
				1,
				0.76761794090271
			],
			"translation":[
				0,
				0.10970394313335419,
				-3.299999952316284
			]
		},
		{
			"mesh":13,
			"name":"Plane.001",
			"rotation":[
				0,
				0,
				-0.7071068286895752,
				0.7071068286895752
			],
			"scale":[
				1.1015775203704834,
				1,
				1
			],
			"translation":[
				-3.222398042678833,
				3.1526989936828613,
				0
			]
		},
		{
			"mesh":14,
			"name":"Plane.009",
			"scale":[
				2,
				0.7764415144920349,
				2.25
			],
			"translation":[
				0.25645825266838074,
				0.08007914572954178,
				-0.6041146516799927
			]
		},
		{
			"mesh":15,
			"name":"Base",
			"rotation":[
				0,
				0,
				-0.4310258626937866,
				0.9023395776748657
			],
			"scale":[
				-16.098709106445312,
				-0.621282696723938,
				-16.42725372314453
			],
			"translation":[
				0.024889303371310234,
				0.08772101998329163,
				-0.008848193101584911
			]
		},
		{
			"name":"Body",
			"rotation":[
				0,
				0,
				-0.43102580308914185,
				0.9023395776748657
			],
			"scale":[
				-16.427255630493164,
				-16.427255630493164,
				-16.42725372314453
			],
			"translation":[
				-1.679226040840149,
				2.2036185264587402,
				-0.000433329027146101
			]
		},
		{
			"mesh":16,
			"name":"Components",
			"rotation":[
				0,
				0,
				-0.43102580308914185,
				0.9023395776748657
			],
			"scale":[
				-0.6371268630027771,
				-0.6371268630027771,
				-0.8415445685386658
			],
			"translation":[
				-0.016457458958029747,
				0.7423864603042603,
				0.9459576606750488
			]
		},
		{
			"mesh":17,
			"name":"Fastening.001",
			"rotation":[
				0,
				0.7071068286895752,
				0,
				0.7071068286895752
			]
		},
		{
			"children":[
				18
			],
			"mesh":18,
			"name":"DustCover",
			"rotation":[
				0,
				0,
				-0.4309612512588501,
				0.9023704528808594
			],
			"scale":[
				-16.42725372314453,
				-16.42725372314453,
				-16.4272518157959
			]
		},
		{
			"mesh":19,
			"name":"Fastening",
			"rotation":[
				0,
				0,
				-0.43102580308914185,
				0.9023395776748657
			],
			"scale":[
				-16.427255630493164,
				-16.427255630493164,
				-16.42725372314453
			],
			"translation":[
				0.06753833591938019,
				0.048797279596328735,
				-0.00042892032070085406
			]
		},
		{
			"mesh":20,
			"name":"Feet",
			"rotation":[
				0,
				0,
				-0.43102583289146423,
				0.9023395776748657
			],
			"scale":[
				-0.3922572731971741,
				-0.3922572731971741,
				-0.3922572731971741
			],
			"translation":[
				-1.004733920097351,
				2.7485387325286865,
				-0.00043356744572520256
			]
		},
		{
			"mesh":21,
			"name":"LencoText",
			"rotation":[
				0,
				0,
				-0.43102580308914185,
				0.9023395776748657
			],
			"scale":[
				-1.5666539669036865,
				-2.299452304840088,
				-2.299452066421509
			],
			"translation":[
				-3.385819911956787,
				3.9781482219696045,
				2.8206913471221924
			]
		},
		{
			"mesh":22,
			"name":"Pickup",
			"rotation":[
				-0.010840186849236488,
				-0.0035948362201452255,
				-0.9397464990615845,
				0.3416813015937805
			],
			"scale":[
				-16.427255630493164,
				-16.42725372314453,
				-16.42725372314453
			],
			"translation":[
				-0.8052395582199097,
				0.43435344099998474,
				2.143345832824707
			]
		},
		{
			"mesh":23,
			"name":"AText",
			"scale":[
				0.034218546003103256,
				0.06366268545389175,
				0.06366268545389175
			],
			"translation":[
				0.039829280227422714,
				0.0009379734983667731,
				-0.005878559313714504
			]
		},
		{
			"mesh":24,
			"name":"BText",
			"scale":[
				0.034218546003103256,
				0.06366268545389175,
				0.06366268545389175
			],
			"translation":[
				0.04614415392279625,
				0.0009379739058203995,
				-0.005878559313714504
			]
		},
		{
			"mesh":25,
			"name":"CText",
			"scale":[
				0.034218546003103256,
				0.06366268545389175,
				0.06366268545389175
			],
			"translation":[
				0.052529480308294296,
				0.0009379743132740259,
				-0.0058785597793757915
			]
		},
		{
			"mesh":26,
			"name":"TuningHandle",
			"translation":[
				0.05191197618842125,
				0.0009160099434666336,
				0.0003469665825832635
			]
		},
		{
			"children":[
				24,
				25,
				26,
				27
			],
			"mesh":27,
			"name":"PickupBaseAttachment",
			"rotation":[
				0,
				0,
				-0.43102580308914185,
				0.9023395776748657
			],
			"scale":[
				-16.427255630493164,
				-16.427255630493164,
				-16.42725372314453
			],
			"translation":[
				-1.0244096517562866,
				1.0265604257583618,
				2.407963275909424
			]
		},
		{
			"mesh":28,
			"name":"Thorn",
			"rotation":[
				0,
				0,
				-0.4310258626937866,
				0.9023395776748657
			],
			"scale":[
				-0.05941091850399971,
				-0.297980397939682,
				-0.05941091850399971
			],
			"translation":[
				-2.0955429077148438,
				1.9078494310379028,
				-0.5154002904891968
			]
		},
		{
			"mesh":29,
			"name":"VinylBase",
			"rotation":[
				0,
				0,
				-0.4310258626937866,
				0.9023395776748657
			],
			"scale":[
				-2.5133512020111084,
				-2.5133512020111084,
				-2.5133512020111084
			],
			"translation":[
				-1.9780731201171875,
				2.002753257751465,
				-0.5154002904891968
			]
		},
		{
			"mesh":30,
			"name":"VinylDisk",
			"rotation":[
				0,
				0,
				-0.43102580308914185,
				0.9023395776748657
			],
			"scale":[
				-2.299452304840088,
				-2.299452304840088,
				-2.299452066421509
			],
			"translation":[
				-2.1252360343933105,
				1.8814646005630493,
				-0.5154839754104614
			]
		},
		{
			"mesh":31,
			"name":"VolumeText",
			"scale":[
				5.164935111999512,
				9.609223365783691,
				9.609223365783691
			],
			"translation":[
				1.6189990043640137,
				-1.0427799224853516,
				0.18390296399593353
			]
		},
		{
			"children":[
				32
			],
			"mesh":32,
			"name":"VolumeControl",
			"rotation":[
				0,
				0,
				-0.43102583289146423,
				0.9023395776748657
			],
			"scale":[
				-0.12778648734092712,
				-0.12778648734092712,
				-0.12778648734092712
			],
			"translation":[
				-3.021178722381592,
				3.3147623538970947,
				2.805126428604126
			]
		},
		{
			"children":[
				15,
				16,
				17,
				19,
				20,
				21,
				22,
				23,
				28,
				29,
				30,
				31,
				33
			],
			"name":"AcrylicCover",
			"rotation":[
				-0.30478131771087646,
				-0.6380504369735718,
				0.3047812879085541,
				0.6380504369735718
			],
			"scale":[
				-0.23279789090156555,
				-0.23279789090156555,
				-0.23279789090156555
			],
			"translation":[
				0.6164664626121521,
				1.1333982944488525,
				-3.8364672660827637
			]
		}
	],
	"animations":[
		{
			"channels":[
				{
					"sampler":0,
					"target":{
						"node":19,
						"path":"translation"
					}
				},
				{
					"sampler":1,
					"target":{
						"node":19,
						"path":"rotation"
					}
				},
				{
					"sampler":2,
					"target":{
						"node":19,
						"path":"scale"
					}
				}
			],
			"name":"Abrir",
			"samplers":[
				{
					"input":157,
					"interpolation":"STEP",
					"output":158
				},
				{
					"input":159,
					"interpolation":"LINEAR",
					"output":160
				},
				{
					"input":157,
					"interpolation":"STEP",
					"output":161
				}
			]
		},
		{
			"channels":[
				{
					"sampler":0,
					"target":{
						"node":23,
						"path":"translation"
					}
				},
				{
					"sampler":1,
					"target":{
						"node":23,
						"path":"rotation"
					}
				},
				{
					"sampler":2,
					"target":{
						"node":23,
						"path":"scale"
					}
				}
			],
			"name":"LevantarAgulha",
			"samplers":[
				{
					"input":162,
					"interpolation":"STEP",
					"output":163
				},
				{
					"input":164,
					"interpolation":"LINEAR",
					"output":165
				},
				{
					"input":162,
					"interpolation":"STEP",
					"output":166
				}
			]
		},
		{
			"channels":[
				{
					"sampler":0,
					"target":{
						"node":31,
						"path":"rotation"
					}
				}
			],
			"name":"VinylDiskAction",
			"samplers":[
				{
					"input":167,
					"interpolation":"LINEAR",
					"output":168
				}
			]
		}
	],
	"materials":[
		{
			"doubleSided":true,
			"name":"Walls",
			"pbrMetallicRoughness":{
				"baseColorFactor":[
					0.39156970381736755,
					0.46207737922668457,
					0.36130693554878235,
					1
				],
				"metallicFactor":0,
				"roughnessFactor":0.6239669322967529
			}
		},
		{
			"doubleSided":true,
			"extensions":{
				"KHR_materials_specular":{
					"specularFactor":0
				},
				"KHR_materials_ior":{
					"ior":1.4500000476837158
				}
			},
			"name":"Floor",
			"normalTexture":{
				"extensions":{
					"KHR_texture_transform":{
						"offset":[
							0,
							0.7999999970197678
						],
						"scale":[
							0.20000000298023224,
							0.20000000298023224
						]
					}
				},
				"index":0
			},
			"pbrMetallicRoughness":{
				"baseColorTexture":{
					"extensions":{
						"KHR_texture_transform":{
							"offset":[
								0,
								0.7999999970197678
							],
							"scale":[
								0.20000000298023224,
								0.20000000298023224
							]
						}
					},
					"index":1
				},
				"metallicFactor":0
			}
		},
		{
			"doubleSided":true,
			"name":"edges",
			"pbrMetallicRoughness":{
				"baseColorFactor":[
					0.39156970381736755,
					0.46207737922668457,
					0.36130693554878235,
					1
				],
				"metallicFactor":0,
				"roughnessFactor":0.5
			}
		},
		{
			"doubleSided":true,
			"extensions":{
				"KHR_materials_specular":{
					"specularFactor":0
				},
				"KHR_materials_ior":{
					"ior":1.4500000476837158
				}
			},
			"name":"Material.001",
			"pbrMetallicRoughness":{
				"baseColorFactor":[
					0.800000011920929,
					0.800000011920929,
					0.800000011920929,
					1
				],
				"roughnessFactor":0.33181819319725037
			}
		},
		{
			"doubleSided":true,
			"name":"Material",
			"pbrMetallicRoughness":{
				"metallicFactor":0,
				"metallicRoughnessTexture":{
					"index":2
				}
			}
		},
		{
			"doubleSided":true,
			"name":"Material.002",
			"pbrMetallicRoughness":{
				"baseColorFactor":[
					0.004241904243826866,
					0.004241904243826866,
					0.004241904243826866,
					1
				],
				"metallicFactor":0,
				"roughnessFactor":0.7583333253860474
			}
		},
		{
			"doubleSided":true,
			"name":"tv",
			"pbrMetallicRoughness":{
				"baseColorFactor":[
					0.03389658033847809,
					0.03389658033847809,
					0.03389658033847809,
					1
				],
				"metallicFactor":0,
				"roughnessFactor":0.11818182468414307
			}
		},
		{
			"doubleSided":true,
			"emissiveFactor":[
				1,
				1,
				1
			],
			"name":"back tv",
			"pbrMetallicRoughness":{
				"baseColorFactor":[
					0,
					0,
					0,
					1
				]
			}
		},
		{
			"doubleSided":true,
			"name":"tvScreen",
			"pbrMetallicRoughness":{
				"baseColorFactor":[
					0,
					0,
					0,
					1
				],
				"metallicFactor":0,
				"roughnessFactor":0.5
			}
		},
		{
			"doubleSided":true,
			"name":"table",
			"pbrMetallicRoughness":{
				"metallicFactor":0,
				"metallicRoughnessTexture":{
					"index":3
				}
			}
		},
		{
			"doubleSided":true,
			"name":"poster_frame",
			"pbrMetallicRoughness":{
				"metallicFactor":0,
				"metallicRoughnessTexture":{
					"index":4
				}
			}
		},
		{
			"doubleSided":true,
			"name":"Material.005",
			"pbrMetallicRoughness":{
				"baseColorTexture":{
					"index":5
				},
				"metallicFactor":0.04000002145767212,
				"roughnessFactor":0.12909092009067535
			}
		},
		{
			"doubleSided":true,
			"name":"CorTapete",
			"pbrMetallicRoughness":{
				"baseColorTexture":{
					"index":6
				},
				"metallicFactor":0,
				"roughnessFactor":0.5
			}
		},
		{
			"doubleSided":true,
			"extensions":{
				"KHR_materials_specular":{
					"specularFactor":0.4000000059604645
				},
				"KHR_materials_ior":{
					"ior":1.4500000476837158
				}
			},
			"name":"Plywood",
			"pbrMetallicRoughness":{
				"baseColorTexture":{
					"index":7
				},
				"metallicFactor":0
			}
		},
		{
			"doubleSided":true,
			"name":"Components",
			"pbrMetallicRoughness":{
				"baseColorTexture":{
					"index":8
				},
				"metallicFactor":0,
				"roughnessFactor":0.5
			}
		},
		{
			"doubleSided":true,
			"extensions":{
				"KHR_materials_clearcoat":{
					"clearcoatRoughnessFactor":0
				},
				"KHR_materials_specular":{
					"specularColorFactor":[
						1.100000023841858,
						1.100000023841858,
						1.100000023841858
					]
				},
				"KHR_materials_ior":{
					"ior":1.4500000476837158
				}
			},
			"name":"BlackMattePlastic",
			"pbrMetallicRoughness":{
				"baseColorFactor":[
					0.005604584235697985,
					0.005604584235697985,
					0.005604584235697985,
					1
				],
				"metallicFactor":0.6954545378684998,
				"roughnessFactor":0.6499999761581421
			}
		},
		{
			"doubleSided":true,
			"name":"Steel.001",
			"pbrMetallicRoughness":{
				"baseColorFactor":[
					0.382510244846344,
					0.382510244846344,
					0.382510244846344,
					1
				],
				"roughnessFactor":0.3466453552246094
			}
		},
		{
			"doubleSided":true,
			"extensions":{
				"KHR_materials_transmission":{
					"transmissionFactor":1
				},
				"KHR_materials_ior":{
					"ior":1.4500000476837158
				}
			},
			"name":"Glass",
			"pbrMetallicRoughness":{
				"baseColorFactor":[
					0.6724390387535095,
					0.5840790867805481,
					0.5332766771316528,
					1
				],
				"metallicFactor":0,
				"roughnessFactor":0.08454500138759613
			}
		},
		{
			"doubleSided":true,
			"extensions":{
				"KHR_materials_clearcoat":{
					"clearcoatFactor":0.10000000149011612,
					"clearcoatRoughnessFactor":0.15000000596046448
				},
				"KHR_materials_specular":{
					"specularColorFactor":[
						1.100000023841858,
						1.100000023841858,
						1.100000023841858
					]
				},
				"KHR_materials_ior":{
					"ior":1.4500000476837158
				}
			},
			"name":"BlackGlossyPlasticBaked",
			"normalTexture":{
				"index":9
			},
			"pbrMetallicRoughness":{
				"baseColorFactor":[
					0.005604584235697985,
					0.005604584235697985,
					0.005604584235697985,
					1
				],
				"metallicFactor":0
			}
		},
		{
			"alphaMode":"BLEND",
			"doubleSided":true,
			"name":"Lenco",
			"pbrMetallicRoughness":{
				"baseColorTexture":{
					"index":10
				},
				"metallicFactor":0,
				"roughnessFactor":0.5
			}
		},
		{
			"doubleSided":true,
			"name":"Steel",
			"pbrMetallicRoughness":{
				"baseColorFactor":[
					0.382510244846344,
					0.382510244846344,
					0.382510244846344,
					1
				],
				"roughnessFactor":0.3466453552246094
			}
		},
		{
			"doubleSided":true,
			"extensions":{
				"KHR_materials_clearcoat":{
					"clearcoatRoughnessFactor":0
				},
				"KHR_materials_specular":{
					"specularColorFactor":[
						1.100000023841858,
						1.100000023841858,
						1.100000023841858
					]
				},
				"KHR_materials_ior":{
					"ior":1.4500000476837158
				}
			},
			"name":"RedPlastic",
			"pbrMetallicRoughness":{
				"baseColorFactor":[
					0.8140411972999573,
					0.02004322223365307,
					0.007456337567418814,
					1
				],
				"metallicFactor":0,
				"roughnessFactor":0.6499999761581421
			}
		},
		{
			"doubleSided":true,
			"name":"SteelScrew",
			"normalTexture":{
				"index":11
			},
			"pbrMetallicRoughness":{
				"baseColorFactor":[
					0.382510244846344,
					0.382510244846344,
					0.382510244846344,
					1
				],
				"roughnessFactor":0.3466453552246094
			}
		},
		{
			"alphaMode":"BLEND",
			"doubleSided":true,
			"name":"AText",
			"pbrMetallicRoughness":{
				"baseColorTexture":{
					"index":12
				},
				"metallicFactor":0,
				"roughnessFactor":0.5
			}
		},
		{
			"alphaMode":"BLEND",
			"doubleSided":true,
			"name":"BText",
			"pbrMetallicRoughness":{
				"baseColorTexture":{
					"index":13
				},
				"metallicFactor":0,
				"roughnessFactor":0.5
			}
		},
		{
			"alphaMode":"BLEND",
			"doubleSided":true,
			"name":"CText",
			"pbrMetallicRoughness":{
				"baseColorTexture":{
					"index":14
				},
				"metallicFactor":0,
				"roughnessFactor":0.5
			}
		},
		{
			"alphaMode":"BLEND",
			"doubleSided":true,
			"name":"vynil_baked",
			"pbrMetallicRoughness":{
				"baseColorTexture":{
					"index":15
				},
				"metallicFactor":0
			}
		},
		{
			"alphaMode":"BLEND",
			"doubleSided":true,
			"name":"Volume",
			"pbrMetallicRoughness":{
				"baseColorTexture":{
					"index":16
				},
				"metallicFactor":0,
				"roughnessFactor":0.5
			}
		}
	],
	"meshes":[
		{
			"name":"Plane",
			"primitives":[
				{
					"attributes":{
						"POSITION":0,
						"NORMAL":1,
						"TEXCOORD_0":2
					},
					"indices":3,
					"material":0
				},
				{
					"attributes":{
						"POSITION":4,
						"NORMAL":5,
						"TEXCOORD_0":6
					},
					"indices":7,
					"material":1
				},
				{
					"attributes":{
						"POSITION":8,
						"NORMAL":9,
						"TEXCOORD_0":10
					},
					"indices":11,
					"material":2
				}
			]
		},
		{
			"name":"Circle",
			"primitives":[
				{
					"attributes":{
						"POSITION":12,
						"NORMAL":13,
						"TEXCOORD_0":14
					},
					"indices":15,
					"material":3
				}
			]
		},
		{
			"name":"Plane.007",
			"primitives":[
				{
					"attributes":{
						"POSITION":16,
						"NORMAL":17,
						"TEXCOORD_0":18
					},
					"indices":19,
					"material":4
				}
			]
		},
		{
			"name":"Plane.002",
			"primitives":[
				{
					"attributes":{
						"POSITION":20,
						"NORMAL":21,
						"TEXCOORD_0":22
					},
					"indices":23,
					"material":4
				}
			]
		},
		{
			"name":"Plane.008",
			"primitives":[
				{
					"attributes":{
						"POSITION":24,
						"NORMAL":25,
						"TEXCOORD_0":26
					},
					"indices":27,
					"material":4
				}
			]
		},
		{
			"name":"Plane.009",
			"primitives":[
				{
					"attributes":{
						"POSITION":28,
						"NORMAL":29,
						"TEXCOORD_0":30
					},
					"indices":27,
					"material":4
				}
			]
		},
		{
			"name":"Plane.010",
			"primitives":[
				{
					"attributes":{
						"POSITION":31,
						"NORMAL":32,
						"TEXCOORD_0":33
					},
					"indices":34,
					"material":4
				}
			]
		},
		{
			"name":"Plane.011",
			"primitives":[
				{
					"attributes":{
						"POSITION":35,
						"NORMAL":36,
						"TEXCOORD_0":37
					},
					"indices":27,
					"material":4
				}
			]
		},
		{
			"name":"Plane.003",
			"primitives":[
				{
					"attributes":{
						"POSITION":38,
						"NORMAL":39,
						"TEXCOORD_0":40
					},
					"indices":27,
					"material":4
				}
			]
		},
		{
			"name":"Plane.001",
			"primitives":[
				{
					"attributes":{
						"POSITION":41,
						"NORMAL":42,
						"TEXCOORD_0":43
					},
					"indices":44,
					"material":5
				}
			]
		},
		{
			"name":"Plane.004",
			"primitives":[
				{
					"attributes":{
						"POSITION":45,
						"NORMAL":46,
						"TEXCOORD_0":47
					},
					"indices":48,
					"material":6
				},
				{
					"attributes":{
						"POSITION":49,
						"NORMAL":50,
						"TEXCOORD_0":51
					},
					"indices":7,
					"material":7
				},
				{
					"attributes":{
						"POSITION":52,
						"NORMAL":53,
						"TEXCOORD_0":54
					},
					"indices":55,
					"material":8
				}
			]
		},
		{
			"name":"Plane.006",
			"primitives":[
				{
					"attributes":{
						"POSITION":56,
						"NORMAL":57,
						"TEXCOORD_0":58
					},
					"indices":59,
					"material":9
				}
			]
		},
		{
			"name":"Plane.005",
			"primitives":[
				{
					"attributes":{
						"POSITION":60,
						"NORMAL":61,
						"TEXCOORD_0":62
					},
					"indices":63,
					"material":9
				}
			]
		},
		{
			"name":"Plane.013",
			"primitives":[
				{
					"attributes":{
						"POSITION":64,
						"NORMAL":65,
						"TEXCOORD_0":66
					},
					"indices":67,
					"material":10
				},
				{
					"attributes":{
						"POSITION":68,
						"NORMAL":69,
						"TEXCOORD_0":70
					},
					"indices":71,
					"material":11
				}
			]
		},
		{
			"name":"Plane.014",
			"primitives":[
				{
					"attributes":{
						"POSITION":72,
						"NORMAL":73,
						"TEXCOORD_0":74
					},
					"indices":75,
					"material":12
				}
			]
		},
		{
			"name":"Cube.017",
			"primitives":[
				{
					"attributes":{
						"POSITION":76,
						"NORMAL":77,
						"TEXCOORD_0":78
					},
					"indices":79,
					"material":13
				}
			]
		},
		{
			"name":"Cube.014",
			"primitives":[
				{
					"attributes":{
						"POSITION":80,
						"NORMAL":81,
						"TEXCOORD_0":82
					},
					"indices":55,
					"material":14
				},
				{
					"attributes":{
						"POSITION":83,
						"NORMAL":84,
						"TEXCOORD_0":85
					},
					"indices":86,
					"material":15
				}
			]
		},
		{
			"name":"BezierCurve.001",
			"primitives":[
				{
					"attributes":{
						"POSITION":87,
						"NORMAL":88,
						"TEXCOORD_0":89
					},
					"indices":90,
					"material":16
				}
			]
		},
		{
			"name":"Cube.007",
			"primitives":[
				{
					"attributes":{
						"POSITION":91,
						"NORMAL":92,
						"TEXCOORD_0":93
					},
					"indices":94,
					"material":17
				}
			]
		},
		{
			"name":"Cube.003",
			"primitives":[
				{
					"attributes":{
						"POSITION":95,
						"NORMAL":96,
						"TEXCOORD_0":97
					},
					"indices":98,
					"material":18
				}
			]
		},
		{
			"name":"Cylinder",
			"primitives":[
				{
					"attributes":{
						"POSITION":99,
						"NORMAL":100,
						"TEXCOORD_0":101
					},
					"indices":102,
					"material":15
				}
			]
		},
		{
			"name":"Plane.017",
			"primitives":[
				{
					"attributes":{
						"POSITION":103,
						"NORMAL":104,
						"TEXCOORD_0":105
					},
					"indices":55,
					"material":19
				}
			]
		},
		{
			"name":"Cylinder.004",
			"primitives":[
				{
					"attributes":{
						"POSITION":106,
						"NORMAL":107,
						"TEXCOORD_0":108
					},
					"indices":109,
					"material":20
				},
				{
					"attributes":{
						"POSITION":110,
						"NORMAL":111,
						"TEXCOORD_0":112
					},
					"indices":113,
					"material":15
				},
				{
					"attributes":{
						"POSITION":114,
						"NORMAL":115,
						"TEXCOORD_0":116
					},
					"indices":117,
					"material":21
				},
				{
					"attributes":{
						"POSITION":118,
						"NORMAL":119,
						"TEXCOORD_0":120
					},
					"indices":121,
					"material":22
				}
			]
		},
		{
			"name":"Plane.019",
			"primitives":[
				{
					"attributes":{
						"POSITION":122,
						"NORMAL":123,
						"TEXCOORD_0":124
					},
					"indices":55,
					"material":23
				}
			]
		},
		{
			"name":"Plane.020",
			"primitives":[
				{
					"attributes":{
						"POSITION":125,
						"NORMAL":126,
						"TEXCOORD_0":127
					},
					"indices":55,
					"material":24
				}
			]
		},
		{
			"name":"Plane.021",
			"primitives":[
				{
					"attributes":{
						"POSITION":128,
						"NORMAL":129,
						"TEXCOORD_0":130
					},
					"indices":55,
					"material":25
				}
			]
		},
		{
			"name":"Cube.006",
			"primitives":[
				{
					"attributes":{
						"POSITION":131,
						"NORMAL":132,
						"TEXCOORD_0":133
					},
					"indices":134,
					"material":15
				}
			]
		},
		{
			"name":"Cube.001",
			"primitives":[
				{
					"attributes":{
						"POSITION":135,
						"NORMAL":136,
						"TEXCOORD_0":137
					},
					"indices":138,
					"material":18
				}
			]
		},
		{
			"name":"Cylinder.003",
			"primitives":[
				{
					"attributes":{
						"POSITION":139,
						"NORMAL":140,
						"TEXCOORD_0":141
					},
					"indices":142,
					"material":16
				}
			]
		},
		{
			"name":"Cylinder.001",
			"primitives":[
				{
					"attributes":{
						"POSITION":143,
						"NORMAL":144,
						"TEXCOORD_0":145
					},
					"indices":146,
					"material":16
				}
			]
		},
		{
			"name":"Plane.016",
			"primitives":[
				{
					"attributes":{
						"POSITION":147,
						"NORMAL":148,
						"TEXCOORD_0":149
					},
					"indices":55,
					"material":26
				}
			]
		},
		{
			"name":"Plane.018",
			"primitives":[
				{
					"attributes":{
						"POSITION":150,
						"NORMAL":151,
						"TEXCOORD_0":152
					},
					"indices":55,
					"material":27
				}
			]
		},
		{
			"name":"Cylinder.002",
			"primitives":[
				{
					"attributes":{
						"POSITION":153,
						"NORMAL":154,
						"TEXCOORD_0":155
					},
					"indices":156,
					"material":16
				}
			]
		}
	],
	"textures":[
		{
			"sampler":0,
			"source":0
		},
		{
			"sampler":0,
			"source":0
		},
		{
			"sampler":0,
			"source":1
		},
		{
			"sampler":0,
			"source":1
		},
		{
			"sampler":0,
			"source":1
		},
		{
			"sampler":0,
			"source":2
		},
		{
			"sampler":0,
			"source":3
		},
		{
			"sampler":0,
			"source":4
		},
		{
			"sampler":0,
			"source":5
		},
		{
			"sampler":0,
			"source":6
		},
		{
			"sampler":0,
			"source":7
		},
		{
			"sampler":0,
			"source":6
		},
		{
			"sampler":0,
			"source":8
		},
		{
			"sampler":0,
			"source":9
		},
		{
			"sampler":0,
			"source":10
		},
		{
			"sampler":0,
			"source":11
		},
		{
			"sampler":0,
			"source":12
		}
	],
	"images":[
		{
			"mimeType":"image/jpeg",
			"name":"Wood_Floor_rfdflhrkm_4k_Roughness",
			"uri":"Wood_Floor_rfdflhrkm_4k_Roughness.jpg"
		},
		{
			"mimeType":"image/png",
			"name":"Image",
			"uri":"Image.png"
		},
		{
			"mimeType":"image/jpeg",
			"name":"fotoQuadroBlender",
			"uri":"fotoQuadroBlender.jpg"
		},
		{
			"mimeType":"image/jpeg",
			"name":"\u0411\u0435\u0437 \u0438\u043c\u0435\u043d\u0438-1",
			"uri":"%D0%91%D0%B5%D0%B7%20%D0%B8%D0%BC%D0%B5%D0%BD%D0%B8-1.jpg"
		},
		{
			"mimeType":"image/jpeg",
			"name":"savana_linha_dual_syncro_guararapes",
			"uri":"savana_linha_dual_syncro_guararapes.jpg"
		},
		{
			"mimeType":"image/png",
			"name":"image (1)",
			"uri":"image%20%281%29.png"
		},
		{
			"mimeType":"image/png",
			"name":"fastening_normalmap",
			"uri":"fastening_normalmap.png"
		},
		{
			"mimeType":"image/png",
			"name":"Lenco",
			"uri":"Lenco.png"
		},
		{
			"mimeType":"image/png",
			"name":"AText",
			"uri":"AText.png"
		},
		{
			"mimeType":"image/png",
			"name":"BText",
			"uri":"BText.png"
		},
		{
			"mimeType":"image/png",
			"name":"CText",
			"uri":"CText.png"
		},
		{
			"mimeType":"image/png",
			"name":"vynil_rgba",
			"uri":"vynil_rgba.png"
		},
		{
			"mimeType":"image/png",
			"name":"Volume",
			"uri":"Volume.png"
		}
	],
	"accessors":[
		{
			"bufferView":0,
			"componentType":5126,
			"count":8,
			"max":[
				4,
				5,
				4
			],
			"min":[
				-4,
				0,
				-4
			],
			"type":"VEC3"
		},
		{
			"bufferView":1,
			"componentType":5126,
			"count":8,
			"type":"VEC3"
		},
		{
			"bufferView":2,
			"componentType":5126,
			"count":8,
			"type":"VEC2"
		},
		{
			"bufferView":3,
			"componentType":5123,
			"count":12,
			"type":"SCALAR"
		},
		{
			"bufferView":4,
			"componentType":5126,
			"count":4,
			"max":[
				4,
				0,
				4
			],
			"min":[
				-4,
				0,
				-4
			],
			"type":"VEC3"
		},
		{
			"bufferView":5,
			"componentType":5126,
			"count":4,
			"type":"VEC3"
		},
		{
			"bufferView":6,
			"componentType":5126,
			"count":4,
			"type":"VEC2"
		},
		{
			"bufferView":7,
			"componentType":5123,
			"count":6,
			"type":"SCALAR"
		},
		{
			"bufferView":8,
			"componentType":5126,
			"count":30,
			"max":[
				4,
				5,
				4
			],
			"min":[
				-4.300000190734863,
				-0.30000001192092896,
				-4.300000190734863
			],
			"type":"VEC3"
		},
		{
			"bufferView":9,
			"componentType":5126,
			"count":30,
			"type":"VEC3"
		},
		{
			"bufferView":10,
			"componentType":5126,
			"count":30,
			"type":"VEC2"
		},
		{
			"bufferView":11,
			"componentType":5123,
			"count":54,
			"type":"SCALAR"
		},
		{
			"bufferView":12,
			"componentType":5126,
			"count":144,
			"max":[
				34.03361511230469,
				-3.477064847946167,
				10.347326278686523
			],
			"min":[
				32.03361511230469,
				-5.873770236968994,
				8.347326278686523
			],
			"type":"VEC3"
		},
		{
			"bufferView":13,
			"componentType":5126,
			"count":144,
			"type":"VEC3"
		},
		{
			"bufferView":14,
			"componentType":5126,
			"count":144,
			"type":"VEC2"
		},
		{
			"bufferView":15,
			"componentType":5123,
			"count":852,
			"type":"SCALAR"
		},
		{
			"bufferView":16,
			"componentType":5126,
			"count":75,
			"max":[
				1.319989800453186,
				0.43854981660842896,
				0.8307740092277527
			],
			"min":[
				-1.319989800453186,
				0,
				-0.7622190713882446
			],
			"type":"VEC3"
		},
		{
			"bufferView":17,
			"componentType":5126,
			"count":75,
			"type":"VEC3"
		},
		{
			"bufferView":18,
			"componentType":5126,
			"count":75,
			"type":"VEC2"
		},
		{
			"bufferView":19,
			"componentType":5123,
			"count":384,
			"type":"SCALAR"
		},
		{
			"bufferView":20,
			"componentType":5126,
			"count":86,
			"max":[
				1.319989800453186,
				0.43854981660842896,
				0.8307740092277527
			],
			"min":[
				-1.319989800453186,
				0,
				-0.7622190713882446
			],
			"type":"VEC3"
		},
		{
			"bufferView":21,
			"componentType":5126,
			"count":86,
			"type":"VEC3"
		},
		{
			"bufferView":22,
			"componentType":5126,
			"count":86,
			"type":"VEC2"
		},
		{
			"bufferView":23,
			"componentType":5123,
			"count":384,
			"type":"SCALAR"
		},
		{
			"bufferView":24,
			"componentType":5126,
			"count":66,
			"max":[
				0.9956711530685425,
				0.39769238233566284,
				0.5375152230262756
			],
			"min":[
				-0.9956711530685425,
				0,
				-0.5375152230262756
			],
			"type":"VEC3"
		},
		{
			"bufferView":25,
			"componentType":5126,
			"count":66,
			"type":"VEC3"
		},
		{
			"bufferView":26,
			"componentType":5126,
			"count":66,
			"type":"VEC2"
		},
		{
			"bufferView":27,
			"componentType":5123,
			"count":276,
			"type":"SCALAR"
		},
		{
			"bufferView":28,
			"componentType":5126,
			"count":66,
			"max":[
				0.9956711530685425,
				0.39769238233566284,
				0.5375152230262756
			],
			"min":[
				-0.9956711530685425,
				0,
				-0.5375152230262756
			],
			"type":"VEC3"
		},
		{
			"bufferView":29,
			"componentType":5126,
			"count":66,
			"type":"VEC3"
		},
		{
			"bufferView":30,
			"componentType":5126,
			"count":66,
			"type":"VEC2"
		},
		{
			"bufferView":31,
			"componentType":5126,
			"count":84,
			"max":[
				0.9956711530685425,
				0.39769238233566284,
				0.5375152230262756
			],
			"min":[
				-0.9956711530685425,
				0,
				-0.5375152230262756
			],
			"type":"VEC3"
		},
		{
			"bufferView":32,
			"componentType":5126,
			"count":84,
			"type":"VEC3"
		},
		{
			"bufferView":33,
			"componentType":5126,
			"count":84,
			"type":"VEC2"
		},
		{
			"bufferView":34,
			"componentType":5123,
			"count":360,
			"type":"SCALAR"
		},
		{
			"bufferView":35,
			"componentType":5126,
			"count":66,
			"max":[
				0.7383343577384949,
				0.3802810311317444,
				0.39859139919281006
			],
			"min":[
				-0.7383343577384949,
				0,
				-0.39859139919281006
			],
			"type":"VEC3"
		},
		{
			"bufferView":36,
			"componentType":5126,
			"count":66,
			"type":"VEC3"
		},
		{
			"bufferView":37,
			"componentType":5126,
			"count":66,
			"type":"VEC2"
		},
		{
			"bufferView":38,
			"componentType":5126,
			"count":66,
			"max":[
				0.7383343577384949,
				0.3802810311317444,
				0.39859139919281006
			],
			"min":[
				-0.7383343577384949,
				0,
				-0.39859139919281006
			],
			"type":"VEC3"
		},
		{
			"bufferView":39,
			"componentType":5126,
			"count":66,
			"type":"VEC3"
		},
		{
			"bufferView":40,
			"componentType":5126,
			"count":66,
			"type":"VEC2"
		},
		{
			"bufferView":41,
			"componentType":5126,
			"count":265,
			"max":[
				2.986332893371582,
				1.5574121475219727,
				1
			],
			"min":[
				-2.986332893371582,
				0,
				-1
			],
			"type":"VEC3"
		},
		{
			"bufferView":42,
			"componentType":5126,
			"count":265,
			"type":"VEC3"
		},
		{
			"bufferView":43,
			"componentType":5126,
			"count":265,
			"type":"VEC2"
		},
		{
			"bufferView":44,
			"componentType":5123,
			"count":1332,
			"type":"SCALAR"
		},
		{
			"bufferView":45,
			"componentType":5126,
			"count":177,
			"max":[
				1.0615253448486328,
				0.655577540397644,
				1.0615254640579224
			],
			"min":[
				-1.0615253448486328,
				0,
				-1.0615254640579224
			],
			"type":"VEC3"
		},
		{
			"bufferView":46,
			"componentType":5126,
			"count":177,
			"type":"VEC3"
		},
		{
			"bufferView":47,
			"componentType":5126,
			"count":177,
			"type":"VEC2"
		},
		{
			"bufferView":48,
			"componentType":5123,
			"count":936,
			"type":"SCALAR"
		},
		{
			"bufferView":49,
			"componentType":5126,
			"count":4,
			"max":[
				0.9688175320625305,
				0,
				0.9688175320625305
			],
			"min":[
				-0.9688175320625305,
				0,
				-0.9688175320625305
			],
			"type":"VEC3"
		},
		{
			"bufferView":50,
			"componentType":5126,
			"count":4,
			"type":"VEC3"
		},
		{
			"bufferView":51,
			"componentType":5126,
			"count":4,
			"type":"VEC2"
		},
		{
			"bufferView":52,
			"componentType":5126,
			"count":4,
			"max":[
				1.028681993484497,
				0.39352336525917053,
				1.0286822319030762
			],
			"min":[
				-1.028681993484497,
				0.39352336525917053,
				-1.0286822319030762
			],
			"type":"VEC3"
		},
		{
			"bufferView":53,
			"componentType":5126,
			"count":4,
			"type":"VEC3"
		},
		{
			"bufferView":54,
			"componentType":5126,
			"count":4,
			"type":"VEC2"
		},
		{
			"bufferView":55,
			"componentType":5123,
			"count":6,
			"type":"SCALAR"
		},
		{
			"bufferView":56,
			"componentType":5126,
			"count":24,
			"max":[
				28.763816833496094,
				-0.3411632180213928,
				4.640360355377197
			],
			"min":[
				26.763816833496094,
				-1.4144119024276733,
				2.6403603553771973
			],
			"type":"VEC3"
		},
		{
			"bufferView":57,
			"componentType":5126,
			"count":24,
			"type":"VEC3"
		},
		{
			"bufferView":58,
			"componentType":5126,
			"count":24,
			"type":"VEC2"
		},
		{
			"bufferView":59,
			"componentType":5123,
			"count":36,
			"type":"SCALAR"
		},
		{
			"bufferView":60,
			"componentType":5126,
			"count":48,
			"max":[
				1,
				0.8037912845611572,
				1
			],
			"min":[
				-1,
				0,
				-1
			],
			"type":"VEC3"
		},
		{
			"bufferView":61,
			"componentType":5126,
			"count":48,
			"type":"VEC3"
		},
		{
			"bufferView":62,
			"componentType":5126,
			"count":48,
			"type":"VEC2"
		},
		{
			"bufferView":63,
			"componentType":5123,
			"count":84,
			"type":"SCALAR"
		},
		{
			"bufferView":64,
			"componentType":5126,
			"count":400,
			"max":[
				1,
				0,
				0.7818850874900818
			],
			"min":[
				-1,
				-0.10079922527074814,
				-0.7818850874900818
			],
			"type":"VEC3"
		},
		{
			"bufferView":65,
			"componentType":5126,
			"count":400,
			"type":"VEC3"
		},
		{
			"bufferView":66,
			"componentType":5126,
			"count":400,
			"type":"VEC2"
		},
		{
			"bufferView":67,
			"componentType":5123,
			"count":624,
			"type":"SCALAR"
		},
		{
			"bufferView":68,
			"componentType":5126,
			"count":4,
			"max":[
				0.9172229170799255,
				-0.04300851747393608,
				0.6991080045700073
			],
			"min":[
				-0.9172229170799255,
				-0.04300851747393608,
				-0.6991080045700073
			],
			"type":"VEC3"
		},
		{
			"bufferView":69,
			"componentType":5126,
			"count":4,
			"type":"VEC3"
		},
		{
			"bufferView":70,
			"componentType":5126,
			"count":4,
			"type":"VEC2"
		},
		{
			"bufferView":71,
			"componentType":5123,
			"count":6,
			"type":"SCALAR"
		},
		{
			"bufferView":72,
			"componentType":5126,
			"count":11604,
			"max":[
				1,
				0,
				1
			],
			"min":[
				-1,
				0,
				-1
			],
			"type":"VEC3"
		},
		{
			"bufferView":73,
			"componentType":5126,
			"count":11604,
			"type":"VEC3"
		},
		{
			"bufferView":74,
			"componentType":5126,
			"count":11604,
			"type":"VEC2"
		},
		{
			"bufferView":75,
			"componentType":5123,
			"count":63630,
			"type":"SCALAR"
		},
		{
			"bufferView":76,
			"componentType":5126,
			"count":246,
			"max":[
				0.33716484904289246,
				0.3321499824523926,
				0.20439326763153076
			],
			"min":[
				0,
				-0.332149863243103,
				-0.20541781187057495
			],
			"type":"VEC3"
		},
		{
			"bufferView":77,
			"componentType":5126,
			"count":246,
			"type":"VEC3"
		},
		{
			"bufferView":78,
			"componentType":5126,
			"count":246,
			"type":"VEC2"
		},
		{
			"bufferView":79,
			"componentType":5123,
			"count":660,
			"type":"SCALAR"
		},
		{
			"bufferView":80,
			"componentType":5126,
			"count":4,
			"max":[
				-0.8163493871688843,
				0.2773601710796356,
				0.8247788548469543
			],
			"min":[
				-0.8163493871688843,
				-0.18961955606937408,
				-1.0042295455932617
			],
			"type":"VEC3"
		},
		{
			"bufferView":81,
			"componentType":5126,
			"count":4,
			"type":"VEC3"
		},
		{
			"bufferView":82,
			"componentType":5126,
			"count":4,
			"type":"VEC2"
		},
		{
			"bufferView":83,
			"componentType":5126,
			"count":20,
			"max":[
				0.8096060156822205,
				0.2773602604866028,
				0.8247789740562439
			],
			"min":[
				-0.816349983215332,
				-0.1896195262670517,
				-1.0042296648025513
			],
			"type":"VEC3"
		},
		{
			"bufferView":84,
			"componentType":5126,
			"count":20,
			"type":"VEC3"
		},
		{
			"bufferView":85,
			"componentType":5126,
			"count":20,
			"type":"VEC2"
		},
		{
			"bufferView":86,
			"componentType":5123,
			"count":30,
			"type":"SCALAR"
		},
		{
			"bufferView":87,
			"componentType":5126,
			"count":448,
			"max":[
				0.1552990823984146,
				0.023777402937412262,
				0.0056089856661856174
			],
			"min":[
				-0.15535180270671844,
				-0.0018064654432237148,
				-0.0017931798938661814
			],
			"type":"VEC3"
		},
		{
			"bufferView":88,
			"componentType":5126,
			"count":448,
			"type":"VEC3"
		},
		{
			"bufferView":89,
			"componentType":5126,
			"count":448,
			"type":"VEC2"
		},
		{
			"bufferView":90,
			"componentType":5123,
			"count":2412,
			"type":"SCALAR"
		},
		{
			"bufferView":91,
			"componentType":5126,
			"count":2033,
			"max":[
				0.33256101608276367,
				0.0633702352643013,
				0.20376235246658325
			],
			"min":[
				-0.0021372586488723755,
				0.00761207053437829,
				-0.20411349833011627
			],
			"type":"VEC3"
		},
		{
			"bufferView":92,
			"componentType":5126,
			"count":2033,
			"type":"VEC3"
		},
		{
			"bufferView":93,
			"componentType":5126,
			"count":2033,
			"type":"VEC2"
		},
		{
			"bufferView":94,
			"componentType":5123,
			"count":7428,
			"type":"SCALAR"
		},
		{
			"bufferView":95,
			"componentType":5126,
			"count":736,
			"max":[
				0.0035478330682963133,
				0.008594663813710213,
				0.14421957731246948
			],
			"min":[
				-0.0035478330682963133,
				-0.008594663813710213,
				-0.14421957731246948
			],
			"type":"VEC3"
		},
		{
			"bufferView":96,
			"componentType":5126,
			"count":736,
			"type":"VEC3"
		},
		{
			"bufferView":97,
			"componentType":5126,
			"count":736,
			"type":"VEC2"
		},
		{
			"bufferView":98,
			"componentType":5123,
			"count":1800,
			"type":"SCALAR"
		},
		{
			"bufferView":99,
			"componentType":5126,
			"count":520,
			"max":[
				6.048191547393799,
				1.6953861713409424,
				7.755586624145508
			],
			"min":[
				-6.048191547393799,
				0.011319160461425781,
				-7.755586624145508
			],
			"type":"VEC3"
		},
		{
			"bufferView":100,
			"componentType":5126,
			"count":520,
			"type":"VEC3"
		},
		{
			"bufferView":101,
			"componentType":5126,
			"count":520,
			"type":"VEC2"
		},
		{
			"bufferView":102,
			"componentType":5123,
			"count":1488,
			"type":"SCALAR"
		},
		{
			"bufferView":103,
			"componentType":5126,
			"count":4,
			"max":[
				0.06249439716339111,
				0,
				0.1401035487651825
			],
			"min":[
				-0.06249439716339111,
				0,
				-0.17266681790351868
			],
			"type":"VEC3"
		},
		{
			"bufferView":104,
			"componentType":5126,
			"count":4,
			"type":"VEC3"
		},
		{
			"bufferView":105,
			"componentType":5126,
			"count":4,
			"type":"VEC2"
		},
		{
			"bufferView":106,
			"componentType":5126,
			"count":887,
			"max":[
				-0.005206158384680748,
				0.2042057365179062,
				0.015877502039074898
			],
			"min":[
				-0.0354403480887413,
				-0.0347333624958992,
				-0.014356689527630806
			],
			"type":"VEC3"
		},
		{
			"bufferView":107,
			"componentType":5126,
			"count":887,
			"type":"VEC3"
		},
		{
			"bufferView":108,
			"componentType":5126,
			"count":887,
			"type":"VEC2"
		},
		{
			"bufferView":109,
			"componentType":5123,
			"count":2310,
			"type":"SCALAR"
		},
		{
			"bufferView":110,
			"componentType":5126,
			"count":3011,
			"max":[
				0.003253081813454628,
				0.21275165677070618,
				0.019120939075946808
			],
			"min":[
				-0.02976636402308941,
				-0.021304242312908173,
				-0.01331310160458088
			],
			"type":"VEC3"
		},
		{
			"bufferView":111,
			"componentType":5126,
			"count":3011,
			"type":"VEC3"
		},
		{
			"bufferView":112,
			"componentType":5126,
			"count":3011,
			"type":"VEC2"
		},
		{
			"bufferView":113,
			"componentType":5123,
			"count":8370,
			"type":"SCALAR"
		},
		{
			"bufferView":114,
			"componentType":5126,
			"count":341,
			"max":[
				-0.012976864352822304,
				0.20782455801963806,
				0.015233326703310013
			],
			"min":[
				-0.017501726746559143,
				0.18431560695171356,
				0.0021747048012912273
			],
			"type":"VEC3"
		},
		{
			"bufferView":115,
			"componentType":5126,
			"count":341,
			"type":"VEC3"
		},
		{
			"bufferView":116,
			"componentType":5126,
			"count":341,
			"type":"VEC2"
		},
		{
			"bufferView":117,
			"componentType":5123,
			"count":714,
			"type":"SCALAR"
		},
		{
			"bufferView":118,
			"componentType":5126,
			"count":24,
			"max":[
				-0.02976636402308941,
				0.00111520872451365,
				0.003024756908416748
			],
			"min":[
				-0.02976636402308941,
				-0.0035245451144874096,
				-0.0016149959992617369
			],
			"type":"VEC3"
		},
		{
			"bufferView":119,
			"componentType":5126,
			"count":24,
			"type":"VEC3"
		},
		{
			"bufferView":120,
			"componentType":5126,
			"count":24,
			"type":"VEC2"
		},
		{
			"bufferView":121,
			"componentType":5123,
			"count":66,
			"type":"SCALAR"
		},
		{
			"bufferView":122,
			"componentType":5126,
			"count":4,
			"max":[
				0.06249439716339111,
				0,
				0.05086322873830795
			],
			"min":[
				-0.06249439716339111,
				0,
				-0.05086322873830795
			],
			"type":"VEC3"
		},
		{
			"bufferView":123,
			"componentType":5126,
			"count":4,
			"type":"VEC3"
		},
		{
			"bufferView":124,
			"componentType":5126,
			"count":4,
			"type":"VEC2"
		},
		{
			"bufferView":125,
			"componentType":5126,
			"count":4,
			"max":[
				0.06249439716339111,
				0,
				0.05086322873830795
			],
			"min":[
				-0.06249439716339111,
				0,
				-0.05086322873830795
			],
			"type":"VEC3"
		},
		{
			"bufferView":126,
			"componentType":5126,
			"count":4,
			"type":"VEC3"
		},
		{
			"bufferView":127,
			"componentType":5126,
			"count":4,
			"type":"VEC2"
		},
		{
			"bufferView":128,
			"componentType":5126,
			"count":4,
			"max":[
				0.06249439716339111,
				0,
				0.05086322873830795
			],
			"min":[
				-0.06249439716339111,
				0,
				-0.05086322873830795
			],
			"type":"VEC3"
		},
		{
			"bufferView":129,
			"componentType":5126,
			"count":4,
			"type":"VEC3"
		},
		{
			"bufferView":130,
			"componentType":5126,
			"count":4,
			"type":"VEC2"
		},
		{
			"bufferView":131,
			"componentType":5126,
			"count":158,
			"max":[
				0.0033708070404827595,
				0.0032791467383503914,
				0.0015149471582844853
			],
			"min":[
				-0.0033708070404827595,
				-0.001549357664771378,
				-0.0015149471582844853
			],
			"type":"VEC3"
		},
		{
			"bufferView":132,
			"componentType":5126,
			"count":158,
			"type":"VEC3"
		},
		{
			"bufferView":133,
			"componentType":5126,
			"count":158,
			"type":"VEC2"
		},
		{
			"bufferView":134,
			"componentType":5123,
			"count":444,
			"type":"SCALAR"
		},
		{
			"bufferView":135,
			"componentType":5126,
			"count":2228,
			"max":[
				0.07880665361881256,
				0.04149838164448738,
				0.053459249436855316
			],
			"min":[
				-0.0671718642115593,
				-0.001500000013038516,
				-0.012407748959958553
			],
			"type":"VEC3"
		},
		{
			"bufferView":136,
			"componentType":5126,
			"count":2228,
			"type":"VEC3"
		},
		{
			"bufferView":137,
			"componentType":5126,
			"count":2228,
			"type":"VEC2"
		},
		{
			"bufferView":138,
			"componentType":5123,
			"count":8250,
			"type":"SCALAR"
		},
		{
			"bufferView":139,
			"componentType":5126,
			"count":84,
			"max":[
				1,
				0.691032886505127,
				1
			],
			"min":[
				-1,
				-1,
				-1
			],
			"type":"VEC3"
		},
		{
			"bufferView":140,
			"componentType":5126,
			"count":84,
			"type":"VEC3"
		},
		{
			"bufferView":141,
			"componentType":5126,
			"count":84,
			"type":"VEC2"
		},
		{
			"bufferView":142,
			"componentType":5123,
			"count":234,
			"type":"SCALAR"
		},
		{
			"bufferView":143,
			"componentType":5126,
			"count":130,
			"max":[
				1,
				0.06753212213516235,
				1
			],
			"min":[
				-1,
				-0.05952346324920654,
				-1
			],
			"type":"VEC3"
		},
		{
			"bufferView":144,
			"componentType":5126,
			"count":130,
			"type":"VEC3"
		},
		{
			"bufferView":145,
			"componentType":5126,
			"count":130,
			"type":"VEC2"
		},
		{
			"bufferView":146,
			"componentType":5123,
			"count":372,
			"type":"SCALAR"
		},
		{
			"bufferView":147,
			"componentType":5126,
			"count":4,
			"max":[
				1,
				0,
				1
			],
			"min":[
				-1,
				0,
				-1
			],
			"type":"VEC3"
		},
		{
			"bufferView":148,
			"componentType":5126,
			"count":4,
			"type":"VEC3"
		},
		{
			"bufferView":149,
			"componentType":5126,
			"count":4,
			"type":"VEC2"
		},
		{
			"bufferView":150,
			"componentType":5126,
			"count":4,
			"max":[
				0.06249439716339111,
				0,
				0.1401035487651825
			],
			"min":[
				-0.06249439716339111,
				0,
				-0.17266681790351868
			],
			"type":"VEC3"
		},
		{
			"bufferView":151,
			"componentType":5126,
			"count":4,
			"type":"VEC3"
		},
		{
			"bufferView":152,
			"componentType":5126,
			"count":4,
			"type":"VEC2"
		},
		{
			"bufferView":153,
			"componentType":5126,
			"count":98,
			"max":[
				1,
				1,
				1
			],
			"min":[
				-1,
				-1,
				-1
			],
			"type":"VEC3"
		},
		{
			"bufferView":154,
			"componentType":5126,
			"count":98,
			"type":"VEC3"
		},
		{
			"bufferView":155,
			"componentType":5126,
			"count":98,
			"type":"VEC2"
		},
		{
			"bufferView":156,
			"componentType":5123,
			"count":282,
			"type":"SCALAR"
		},
		{
			"bufferView":157,
			"componentType":5126,
			"count":2,
			"max":[
				1.6666666666666667
			],
			"min":[
				0.041666666666666664
			],
			"type":"SCALAR"
		},
		{
			"bufferView":158,
			"componentType":5126,
			"count":2,
			"type":"VEC3"
		},
		{
			"bufferView":159,
			"componentType":5126,
			"count":40,
			"max":[
				1.6666666666666667
			],
			"min":[
				0.041666666666666664
			],
			"type":"SCALAR"
		},
		{
			"bufferView":160,
			"componentType":5126,
			"count":40,
			"type":"VEC4"
		},
		{
			"bufferView":161,
			"componentType":5126,
			"count":2,
			"type":"VEC3"
		},
		{
			"bufferView":162,
			"componentType":5126,
			"count":2,
			"max":[
				2.5
			],
			"min":[
				0
			],
			"type":"SCALAR"
		},
		{
			"bufferView":163,
			"componentType":5126,
			"count":2,
			"type":"VEC3"
		},
		{
			"bufferView":164,
			"componentType":5126,
			"count":61,
			"max":[
				2.5
			],
			"min":[
				0
			],
			"type":"SCALAR"
		},
		{
			"bufferView":165,
			"componentType":5126,
			"count":61,
			"type":"VEC4"
		},
		{
			"bufferView":166,
			"componentType":5126,
			"count":2,
			"type":"VEC3"
		},
		{
			"bufferView":167,
			"componentType":5126,
			"count":100,
			"max":[
				4.166666666666667
			],
			"min":[
				0.041666666666666664
			],
			"type":"SCALAR"
		},
		{
			"bufferView":168,
			"componentType":5126,
			"count":100,
			"type":"VEC4"
		}
	],
	"bufferViews":[
		{
			"buffer":0,
			"byteLength":96,
			"byteOffset":0,
			"target":34962
		},
		{
			"buffer":0,
			"byteLength":96,
			"byteOffset":96,
			"target":34962
		},
		{
			"buffer":0,
			"byteLength":64,
			"byteOffset":192,
			"target":34962
		},
		{
			"buffer":0,
			"byteLength":24,
			"byteOffset":256,
			"target":34963
		},
		{
			"buffer":0,
			"byteLength":48,
			"byteOffset":280,
			"target":34962
		},
		{
			"buffer":0,
			"byteLength":48,
			"byteOffset":328,
			"target":34962
		},
		{
			"buffer":0,
			"byteLength":32,
			"byteOffset":376,
			"target":34962
		},
		{
			"buffer":0,
			"byteLength":12,
			"byteOffset":408,
			"target":34963
		},
		{
			"buffer":0,
			"byteLength":360,
			"byteOffset":420,
			"target":34962
		},
		{
			"buffer":0,
			"byteLength":360,
			"byteOffset":780,
			"target":34962
		},
		{
			"buffer":0,
			"byteLength":240,
			"byteOffset":1140,
			"target":34962
		},
		{
			"buffer":0,
			"byteLength":108,
			"byteOffset":1380,
			"target":34963
		},
		{
			"buffer":0,
			"byteLength":1728,
			"byteOffset":1488,
			"target":34962
		},
		{
			"buffer":0,
			"byteLength":1728,
			"byteOffset":3216,
			"target":34962
		},
		{
			"buffer":0,
			"byteLength":1152,
			"byteOffset":4944,
			"target":34962
		},
		{
			"buffer":0,
			"byteLength":1704,
			"byteOffset":6096,
			"target":34963
		},
		{
			"buffer":0,
			"byteLength":900,
			"byteOffset":7800,
			"target":34962
		},
		{
			"buffer":0,
			"byteLength":900,
			"byteOffset":8700,
			"target":34962
		},
		{
			"buffer":0,
			"byteLength":600,
			"byteOffset":9600,
			"target":34962
		},
		{
			"buffer":0,
			"byteLength":768,
			"byteOffset":10200,
			"target":34963
		},
		{
			"buffer":0,
			"byteLength":1032,
			"byteOffset":10968,
			"target":34962
		},
		{
			"buffer":0,
			"byteLength":1032,
			"byteOffset":12000,
			"target":34962
		},
		{
			"buffer":0,
			"byteLength":688,
			"byteOffset":13032,
			"target":34962
		},
		{
			"buffer":0,
			"byteLength":768,
			"byteOffset":13720,
			"target":34963
		},
		{
			"buffer":0,
			"byteLength":792,
			"byteOffset":14488,
			"target":34962
		},
		{
			"buffer":0,
			"byteLength":792,
			"byteOffset":15280,
			"target":34962
		},
		{
			"buffer":0,
			"byteLength":528,
			"byteOffset":16072,
			"target":34962
		},
		{
			"buffer":0,
			"byteLength":552,
			"byteOffset":16600,
			"target":34963
		},
		{
			"buffer":0,
			"byteLength":792,
			"byteOffset":17152,
			"target":34962
		},
		{
			"buffer":0,
			"byteLength":792,
			"byteOffset":17944,
			"target":34962
		},
		{
			"buffer":0,
			"byteLength":528,
			"byteOffset":18736,
			"target":34962
		},
		{
			"buffer":0,
			"byteLength":1008,
			"byteOffset":19264,
			"target":34962
		},
		{
			"buffer":0,
			"byteLength":1008,
			"byteOffset":20272,
			"target":34962
		},
		{
			"buffer":0,
			"byteLength":672,
			"byteOffset":21280,
			"target":34962
		},
		{
			"buffer":0,
			"byteLength":720,
			"byteOffset":21952,
			"target":34963
		},
		{
			"buffer":0,
			"byteLength":792,
			"byteOffset":22672,
			"target":34962
		},
		{
			"buffer":0,
			"byteLength":792,
			"byteOffset":23464,
			"target":34962
		},
		{
			"buffer":0,
			"byteLength":528,
			"byteOffset":24256,
			"target":34962
		},
		{
			"buffer":0,
			"byteLength":792,
			"byteOffset":24784,
			"target":34962
		},
		{
			"buffer":0,
			"byteLength":792,
			"byteOffset":25576,
			"target":34962
		},
		{
			"buffer":0,
			"byteLength":528,
			"byteOffset":26368,
			"target":34962
		},
		{
			"buffer":0,
			"byteLength":3180,
			"byteOffset":26896,
			"target":34962
		},
		{
			"buffer":0,
			"byteLength":3180,
			"byteOffset":30076,
			"target":34962
		},
		{
			"buffer":0,
			"byteLength":2120,
			"byteOffset":33256,
			"target":34962
		},
		{
			"buffer":0,
			"byteLength":2664,
			"byteOffset":35376,
			"target":34963
		},
		{
			"buffer":0,
			"byteLength":2124,
			"byteOffset":38040,
			"target":34962
		},
		{
			"buffer":0,
			"byteLength":2124,
			"byteOffset":40164,
			"target":34962
		},
		{
			"buffer":0,
			"byteLength":1416,
			"byteOffset":42288,
			"target":34962
		},
		{
			"buffer":0,
			"byteLength":1872,
			"byteOffset":43704,
			"target":34963
		},
		{
			"buffer":0,
			"byteLength":48,
			"byteOffset":45576,
			"target":34962
		},
		{
			"buffer":0,
			"byteLength":48,
			"byteOffset":45624,
			"target":34962
		},
		{
			"buffer":0,
			"byteLength":32,
			"byteOffset":45672,
			"target":34962
		},
		{
			"buffer":0,
			"byteLength":48,
			"byteOffset":45704,
			"target":34962
		},
		{
			"buffer":0,
			"byteLength":48,
			"byteOffset":45752,
			"target":34962
		},
		{
			"buffer":0,
			"byteLength":32,
			"byteOffset":45800,
			"target":34962
		},
		{
			"buffer":0,
			"byteLength":12,
			"byteOffset":45832,
			"target":34963
		},
		{
			"buffer":0,
			"byteLength":288,
			"byteOffset":45844,
			"target":34962
		},
		{
			"buffer":0,
			"byteLength":288,
			"byteOffset":46132,
			"target":34962
		},
		{
			"buffer":0,
			"byteLength":192,
			"byteOffset":46420,
			"target":34962
		},
		{
			"buffer":0,
			"byteLength":72,
			"byteOffset":46612,
			"target":34963
		},
		{
			"buffer":0,
			"byteLength":576,
			"byteOffset":46684,
			"target":34962
		},
		{
			"buffer":0,
			"byteLength":576,
			"byteOffset":47260,
			"target":34962
		},
		{
			"buffer":0,
			"byteLength":384,
			"byteOffset":47836,
			"target":34962
		},
		{
			"buffer":0,
			"byteLength":168,
			"byteOffset":48220,
			"target":34963
		},
		{
			"buffer":0,
			"byteLength":4800,
			"byteOffset":48388,
			"target":34962
		},
		{
			"buffer":0,
			"byteLength":4800,
			"byteOffset":53188,
			"target":34962
		},
		{
			"buffer":0,
			"byteLength":3200,
			"byteOffset":57988,
			"target":34962
		},
		{
			"buffer":0,
			"byteLength":1248,
			"byteOffset":61188,
			"target":34963
		},
		{
			"buffer":0,
			"byteLength":48,
			"byteOffset":62436,
			"target":34962
		},
		{
			"buffer":0,
			"byteLength":48,
			"byteOffset":62484,
			"target":34962
		},
		{
			"buffer":0,
			"byteLength":32,
			"byteOffset":62532,
			"target":34962
		},
		{
			"buffer":0,
			"byteLength":12,
			"byteOffset":62564,
			"target":34963
		},
		{
			"buffer":0,
			"byteLength":139248,
			"byteOffset":62576,
			"target":34962
		},
		{
			"buffer":0,
			"byteLength":139248,
			"byteOffset":201824,
			"target":34962
		},
		{
			"buffer":0,
			"byteLength":92832,
			"byteOffset":341072,
			"target":34962
		},
		{
			"buffer":0,
			"byteLength":127260,
			"byteOffset":433904,
			"target":34963
		},
		{
			"buffer":0,
			"byteLength":2952,
			"byteOffset":561164,
			"target":34962
		},
		{
			"buffer":0,
			"byteLength":2952,
			"byteOffset":564116,
			"target":34962
		},
		{
			"buffer":0,
			"byteLength":1968,
			"byteOffset":567068,
			"target":34962
		},
		{
			"buffer":0,
			"byteLength":1320,
			"byteOffset":569036,
			"target":34963
		},
		{
			"buffer":0,
			"byteLength":48,
			"byteOffset":570356,
			"target":34962
		},
		{
			"buffer":0,
			"byteLength":48,
			"byteOffset":570404,
			"target":34962
		},
		{
			"buffer":0,
			"byteLength":32,
			"byteOffset":570452,
			"target":34962
		},
		{
			"buffer":0,
			"byteLength":240,
			"byteOffset":570484,
			"target":34962
		},
		{
			"buffer":0,
			"byteLength":240,
			"byteOffset":570724,
			"target":34962
		},
		{
			"buffer":0,
			"byteLength":160,
			"byteOffset":570964,
			"target":34962
		},
		{
			"buffer":0,
			"byteLength":60,
			"byteOffset":571124,
			"target":34963
		},
		{
			"buffer":0,
			"byteLength":5376,
			"byteOffset":571184,
			"target":34962
		},
		{
			"buffer":0,
			"byteLength":5376,
			"byteOffset":576560,
			"target":34962
		},
		{
			"buffer":0,
			"byteLength":3584,
			"byteOffset":581936,
			"target":34962
		},
		{
			"buffer":0,
			"byteLength":4824,
			"byteOffset":585520,
			"target":34963
		},
		{
			"buffer":0,
			"byteLength":24396,
			"byteOffset":590344,
			"target":34962
		},
		{
			"buffer":0,
			"byteLength":24396,
			"byteOffset":614740,
			"target":34962
		},
		{
			"buffer":0,
			"byteLength":16264,
			"byteOffset":639136,
			"target":34962
		},
		{
			"buffer":0,
			"byteLength":14856,
			"byteOffset":655400,
			"target":34963
		},
		{
			"buffer":0,
			"byteLength":8832,
			"byteOffset":670256,
			"target":34962
		},
		{
			"buffer":0,
			"byteLength":8832,
			"byteOffset":679088,
			"target":34962
		},
		{
			"buffer":0,
			"byteLength":5888,
			"byteOffset":687920,
			"target":34962
		},
		{
			"buffer":0,
			"byteLength":3600,
			"byteOffset":693808,
			"target":34963
		},
		{
			"buffer":0,
			"byteLength":6240,
			"byteOffset":697408,
			"target":34962
		},
		{
			"buffer":0,
			"byteLength":6240,
			"byteOffset":703648,
			"target":34962
		},
		{
			"buffer":0,
			"byteLength":4160,
			"byteOffset":709888,
			"target":34962
		},
		{
			"buffer":0,
			"byteLength":2976,
			"byteOffset":714048,
			"target":34963
		},
		{
			"buffer":0,
			"byteLength":48,
			"byteOffset":717024,
			"target":34962
		},
		{
			"buffer":0,
			"byteLength":48,
			"byteOffset":717072,
			"target":34962
		},
		{
			"buffer":0,
			"byteLength":32,
			"byteOffset":717120,
			"target":34962
		},
		{
			"buffer":0,
			"byteLength":10644,
			"byteOffset":717152,
			"target":34962
		},
		{
			"buffer":0,
			"byteLength":10644,
			"byteOffset":727796,
			"target":34962
		},
		{
			"buffer":0,
			"byteLength":7096,
			"byteOffset":738440,
			"target":34962
		},
		{
			"buffer":0,
			"byteLength":4620,
			"byteOffset":745536,
			"target":34963
		},
		{
			"buffer":0,
			"byteLength":36132,
			"byteOffset":750156,
			"target":34962
		},
		{
			"buffer":0,
			"byteLength":36132,
			"byteOffset":786288,
			"target":34962
		},
		{
			"buffer":0,
			"byteLength":24088,
			"byteOffset":822420,
			"target":34962
		},
		{
			"buffer":0,
			"byteLength":16740,
			"byteOffset":846508,
			"target":34963
		},
		{
			"buffer":0,
			"byteLength":4092,
			"byteOffset":863248,
			"target":34962
		},
		{
			"buffer":0,
			"byteLength":4092,
			"byteOffset":867340,
			"target":34962
		},
		{
			"buffer":0,
			"byteLength":2728,
			"byteOffset":871432,
			"target":34962
		},
		{
			"buffer":0,
			"byteLength":1428,
			"byteOffset":874160,
			"target":34963
		},
		{
			"buffer":0,
			"byteLength":288,
			"byteOffset":875588,
			"target":34962
		},
		{
			"buffer":0,
			"byteLength":288,
			"byteOffset":875876,
			"target":34962
		},
		{
			"buffer":0,
			"byteLength":192,
			"byteOffset":876164,
			"target":34962
		},
		{
			"buffer":0,
			"byteLength":132,
			"byteOffset":876356,
			"target":34963
		},
		{
			"buffer":0,
			"byteLength":48,
			"byteOffset":876488,
			"target":34962
		},
		{
			"buffer":0,
			"byteLength":48,
			"byteOffset":876536,
			"target":34962
		},
		{
			"buffer":0,
			"byteLength":32,
			"byteOffset":876584,
			"target":34962
		},
		{
			"buffer":0,
			"byteLength":48,
			"byteOffset":876616,
			"target":34962
		},
		{
			"buffer":0,
			"byteLength":48,
			"byteOffset":876664,
			"target":34962
		},
		{
			"buffer":0,
			"byteLength":32,
			"byteOffset":876712,
			"target":34962
		},
		{
			"buffer":0,
			"byteLength":48,
			"byteOffset":876744,
			"target":34962
		},
		{
			"buffer":0,
			"byteLength":48,
			"byteOffset":876792,
			"target":34962
		},
		{
			"buffer":0,
			"byteLength":32,
			"byteOffset":876840,
			"target":34962
		},
		{
			"buffer":0,
			"byteLength":1896,
			"byteOffset":876872,
			"target":34962
		},
		{
			"buffer":0,
			"byteLength":1896,
			"byteOffset":878768,
			"target":34962
		},
		{
			"buffer":0,
			"byteLength":1264,
			"byteOffset":880664,
			"target":34962
		},
		{
			"buffer":0,
			"byteLength":888,
			"byteOffset":881928,
			"target":34963
		},
		{
			"buffer":0,
			"byteLength":26736,
			"byteOffset":882816,
			"target":34962
		},
		{
			"buffer":0,
			"byteLength":26736,
			"byteOffset":909552,
			"target":34962
		},
		{
			"buffer":0,
			"byteLength":17824,
			"byteOffset":936288,
			"target":34962
		},
		{
			"buffer":0,
			"byteLength":16500,
			"byteOffset":954112,
			"target":34963
		},
		{
			"buffer":0,
			"byteLength":1008,
			"byteOffset":970612,
			"target":34962
		},
		{
			"buffer":0,
			"byteLength":1008,
			"byteOffset":971620,
			"target":34962
		},
		{
			"buffer":0,
			"byteLength":672,
			"byteOffset":972628,
			"target":34962
		},
		{
			"buffer":0,
			"byteLength":468,
			"byteOffset":973300,
			"target":34963
		},
		{
			"buffer":0,
			"byteLength":1560,
			"byteOffset":973768,
			"target":34962
		},
		{
			"buffer":0,
			"byteLength":1560,
			"byteOffset":975328,
			"target":34962
		},
		{
			"buffer":0,
			"byteLength":1040,
			"byteOffset":976888,
			"target":34962
		},
		{
			"buffer":0,
			"byteLength":744,
			"byteOffset":977928,
			"target":34963
		},
		{
			"buffer":0,
			"byteLength":48,
			"byteOffset":978672,
			"target":34962
		},
		{
			"buffer":0,
			"byteLength":48,
			"byteOffset":978720,
			"target":34962
		},
		{
			"buffer":0,
			"byteLength":32,
			"byteOffset":978768,
			"target":34962
		},
		{
			"buffer":0,
			"byteLength":48,
			"byteOffset":978800,
			"target":34962
		},
		{
			"buffer":0,
			"byteLength":48,
			"byteOffset":978848,
			"target":34962
		},
		{
			"buffer":0,
			"byteLength":32,
			"byteOffset":978896,
			"target":34962
		},
		{
			"buffer":0,
			"byteLength":1176,
			"byteOffset":978928,
			"target":34962
		},
		{
			"buffer":0,
			"byteLength":1176,
			"byteOffset":980104,
			"target":34962
		},
		{
			"buffer":0,
			"byteLength":784,
			"byteOffset":981280,
			"target":34962
		},
		{
			"buffer":0,
			"byteLength":564,
			"byteOffset":982064,
			"target":34963
		},
		{
			"buffer":0,
			"byteLength":8,
			"byteOffset":982628
		},
		{
			"buffer":0,
			"byteLength":24,
			"byteOffset":982636
		},
		{
			"buffer":0,
			"byteLength":160,
			"byteOffset":982660
		},
		{
			"buffer":0,
			"byteLength":640,
			"byteOffset":982820
		},
		{
			"buffer":0,
			"byteLength":24,
			"byteOffset":983460
		},
		{
			"buffer":0,
			"byteLength":8,
			"byteOffset":983484
		},
		{
			"buffer":0,
			"byteLength":24,
			"byteOffset":983492
		},
		{
			"buffer":0,
			"byteLength":244,
			"byteOffset":983516
		},
		{
			"buffer":0,
			"byteLength":976,
			"byteOffset":983760
		},
		{
			"buffer":0,
			"byteLength":24,
			"byteOffset":984736
		},
		{
			"buffer":0,
			"byteLength":400,
			"byteOffset":984760
		},
		{
			"buffer":0,
			"byteLength":1600,
			"byteOffset":985160
		}
	],
	"samplers":[
		{
			"magFilter":9729,
			"minFilter":9987
		}
	],
	"buffers":[
		{
			"byteLength":986760,
			"uri":"Cenario2.bin"
		}
	]
}
